<?xml version="1.0" encoding="UTF-8" standalone="no"?>
<svg
   xmlns:dc="http://purl.org/dc/elements/1.1/"
   xmlns:cc="http://creativecommons.org/ns#"
   xmlns:rdf="http://www.w3.org/1999/02/22-rdf-syntax-ns#"
   xmlns:svg="http://www.w3.org/2000/svg"
   xmlns="http://www.w3.org/2000/svg"
   xmlns:sodipodi="http://sodipodi.sourceforge.net/DTD/sodipodi-0.dtd"
   xmlns:inkscape="http://www.inkscape.org/namespaces/inkscape"
   width="500"
   height="500"
   viewBox="0 0 132.29166 132.29167"
   version="1.1"
   id="svg8"
   inkscape:version="1.0.2 (e86c870879, 2021-01-15)"
   sodipodi:docname="josugoar.svg">
  <defs
     id="defs2" />
  <sodipodi:namedview
     id="base"
     pagecolor="#ffffff"
     bordercolor="#666666"
     borderopacity="1.0"
     inkscape:pageopacity="0.0"
     inkscape:pageshadow="2"
     inkscape:zoom="0.70710678"
     inkscape:cx="92.494953"
     inkscape:cy="257.15565"
     inkscape:document-units="mm"
     inkscape:current-layer="layer1"
     inkscape:document-rotation="0"
     showgrid="false"
     showguides="false"
     inkscape:lockguides="true"
     units="px"
     inkscape:window-width="1366"
     inkscape:window-height="704"
     inkscape:window-x="0"
     inkscape:window-y="0"
     inkscape:window-maximized="1" />
  <metadata
     id="metadata5">
    <rdf:RDF>
      <cc:Work
         rdf:about="">
        <dc:format>image/svg+xml</dc:format>
        <dc:type
           rdf:resource="http://purl.org/dc/dcmitype/StillImage" />
        <dc:title></dc:title>
      </cc:Work>
    </rdf:RDF>
  </metadata>
  <g
     inkscape:label="Layer 1"
     inkscape:groupmode="layer"
     id="layer1">
    <g
       aria-label="J"
       id="text38"
       style="font-style:normal;font-weight:normal;font-size:10.5833px;line-height:1.25;font-family:sans-serif;fill:#000000;fill-opacity:1;stroke:none;stroke-width:0.264583"
       transform="matrix(10.367032,0,0,-10.367032,-1412.2769,1041.5489)">
      <path
         id="path65"
         style="font-style:normal;font-variant:normal;font-weight:normal;font-stretch:normal;font-family:'Liberation Mono';-inkscape-font-specification:'Liberation Mono';stroke-width:0.999999"
         d="m 502.5293,334.78906 v 3.04688 h 6.07422 v 9.53125 h -4.50903 c -3.30728,0 -5.66023,1.14584 -7.05347,3.4375 -0.71615,1.22395 -1.07422,2.64974 -1.07422,4.27734 v 3.11719 c 0,1.6276 0.35807,3.05339 1.07422,4.27734 1.39324,2.29166 3.74619,3.4375 7.05347,3.4375 1.78386,0 3.32413,-0.37109 4.62621,-1.11328 2.40885,-1.41926 3.61328,-3.78256 3.61328,-7.08984 v -7.21875 h 20.47461 v -3.125 l -20.47473,0.002 -0.0194,-12.57976 z m 1.60299,15.70313 h 4.47123 v 5.87109 c 0,2.18749 -0.30599,3.73047 -0.91797,4.62891 -0.82031,1.19791 -2.00377,1.79687 -3.55326,1.79687 -0.40365,0 -0.78275,-0.0391 -1.13424,-0.11718 -2.14844,-0.48177 -3.22266,-2.20054 -3.22266,-5.15626 v -1.75 c 0,-2.95571 1.07422,-4.67448 3.22266,-5.15624 0.35149,-0.0781 0.73059,-0.11719 1.13424,-0.11719 z"
         sodipodi:nodetypes="ccccsccccscsccccccscscscsscs"
         transform="matrix(0.26458333,0,0,-0.26458333,6.50969,186.78419)" />
    </g>
    <g
       aria-label="J"
       id="text84"
       style="font-style:normal;font-weight:normal;font-size:10.5833px;line-height:1.25;font-family:sans-serif;fill:#000000;fill-opacity:1;stroke:none;stroke-width:0.264583" />
    <g
       aria-label="J"
       id="text84-1"
       style="font-style:normal;font-weight:normal;font-size:10.5833px;line-height:1.25;font-family:sans-serif;fill:#000000;fill-opacity:1;stroke:none;stroke-width:0.264583"
       transform="translate(6.0957845,-0.61796213)" />
    <g
       aria-label="osu"
       id="text115"
       style="font-style:normal;font-weight:normal;font-size:2.11667px;line-height:1.25;font-family:sans-serif;fill:#000000;fill-opacity:1;stroke:none;stroke-width:0.264583"
       transform="matrix(10.367032,0,0,10.367032,-1343.4323,-896.33736)">
      <path
         d="m 137.00403,90.970428 q 0,0.27802 -0.14056,0.429949 -0.14056,0.150895 -0.40411,0.150895 -0.25425,0 -0.39481,-0.150895 -0.14056,-0.151929 -0.14056,-0.429949 0,-0.276986 0.13952,-0.427881 0.13953,-0.150896 0.40205,-0.150896 0.53847,0 0.53847,0.578777 z m -0.30386,0 q 0,-0.198438 -0.0527,-0.288355 -0.0527,-0.09095 -0.17777,-0.09095 -0.12816,0 -0.185,0.09095 -0.0558,0.09095 -0.0558,0.288355 0,0.199471 0.0568,0.291456 0.0579,0.09095 0.17054,0.09095 0.12815,0 0.18603,-0.08992 0.0579,-0.09095 0.0579,-0.292489 z"
         style="font-style:normal;font-variant:normal;font-weight:bold;font-stretch:normal;font-size:2.11667px;font-family:'Liberation Mono';-inkscape-font-specification:'Liberation Mono Bold';stroke-width:0.264583"
         id="path119" />
      <path
         d="m 138.24013,91.204006 q 0,0.162264 -0.13333,0.255282 -0.13229,0.09198 -0.3669,0.09198 -0.23048,0 -0.35347,-0.07235 -0.12195,-0.07338 -0.16226,-0.227377 l 0.25528,-0.03824 q 0.0217,0.07958 0.0744,0.112655 0.0537,0.03307 0.18603,0.03307 0.12196,0 0.17777,-0.03101 0.0558,-0.03101 0.0558,-0.09715 0,-0.05374 -0.0455,-0.08475 -0.0444,-0.03204 -0.15193,-0.05374 -0.24598,-0.04858 -0.33176,-0.08992 -0.0858,-0.04237 -0.13126,-0.108521 -0.0444,-0.06718 -0.0444,-0.164331 0,-0.160198 0.12299,-0.249081 0.12402,-0.08992 0.35037,-0.08992 0.19947,0 0.32039,0.07751 0.12196,0.07752 0.15193,0.224276 l -0.25735,0.02687 q -0.0124,-0.06821 -0.061,-0.101286 -0.0486,-0.03411 -0.15399,-0.03411 -0.10336,0 -0.15503,0.02687 -0.0517,0.02584 -0.0517,0.08785 0,0.04858 0.0393,0.07751 0.0403,0.02791 0.13435,0.04651 0.13126,0.02687 0.23255,0.05581 0.10232,0.02791 0.1633,0.06718 0.062,0.03928 0.0982,0.101286 0.0372,0.06098 0.0372,0.157097 z"
         style="font-style:normal;font-variant:normal;font-weight:bold;font-stretch:normal;font-size:2.11667px;font-family:'Liberation Mono';-inkscape-font-specification:'Liberation Mono Bold';stroke-width:0.264583"
         id="path121" />
      <path
         d="m 138.79927,90.412322 v 0.627353 q 0,0.142627 0.0455,0.219108 0.0465,0.07545 0.1323,0.07545 0.093,0 0.15296,-0.09095 0.061,-0.09198 0.061,-0.231511 v -0.599447 h 0.29042 v 0.868165 q 0,0.142627 0.008,0.250115 h -0.27699 q -0.0124,-0.148829 -0.0124,-0.222209 h -0.005 q -0.11059,0.242879 -0.339,0.242879 -0.1695,0 -0.25838,-0.107487 -0.0889,-0.108521 -0.0889,-0.321428 v -0.710035 z"
         style="font-style:normal;font-variant:normal;font-weight:bold;font-stretch:normal;font-size:2.11667px;font-family:'Liberation Mono';-inkscape-font-specification:'Liberation Mono Bold';stroke-width:0.264583"
         id="path123" />
    </g>
    <text
       xml:space="preserve"
       style="font-style:normal;font-weight:normal;font-size:10.5833px;line-height:0;font-family:sans-serif;fill:#000000;fill-opacity:1;stroke:none;stroke-width:0.264583"
       x="130.59384"
       y="89.707832"
       id="text128"><tspan
         sodipodi:role="line"
         id="tspan126"
         x="130.59384"
         y="89.707832"
         style="font-style:normal;font-variant:normal;font-weight:bold;font-stretch:normal;font-size:2.64583px;line-height:6.05;font-family:'Liberation Mono';-inkscape-font-specification:'Liberation Mono Bold';text-align:start;letter-spacing:0.428625px;word-spacing:0.0502708px;text-anchor:start;stroke-width:0.264583" /></text>
  </g>
</svg>
