<svg xmlns="http://www.w3.org/2000/svg" viewBox="0 0 24 24" width="48" height="48"><path d="m5.1324 4v1.7467h3.0343v4.3991h-2.5204c-1.4406 0-2.5771 0.4349-3.4037 1.31-0.8304 0.87905-1.2428 2.0864-1.2428 3.6165 0 1.5302 0.41241 2.7385 1.2428 3.6177 0.82668 0.8751 1.9631 1.31 3.4037 1.31 1.4406 0 2.5783-0.4349 3.4049-1.31 0.8304-0.87905 1.2428-2.0875 1.2428-3.6177v-3.191h12.706v-1.8812h-12.706v-6.0002zm0.51392 7.8813h2.5204v3.191c0 1.0301-0.22209 1.8613-0.67179 2.3972-0.44603 0.53151-1.0723 0.79495-1.8486 0.79495-0.7763 0-1.4014-0.26344-1.8474-0.79495-0.4497-0.5359-0.67179-1.3671-0.67179-2.3972 0-1.0301 0.22209-1.8602 0.67179-2.3961 0.44603-0.53151 1.0711-0.79495 1.8474-0.79495z"/><path d="m14.262 7.5449q0 0.77585-0.42432 1.2183-0.42432 0.43955-1.1741 0.43955-0.73529 0-1.1538-0.4425-0.4185-0.4425-0.4185-1.2154 0-0.76995 0.4185-1.2095 0.4185-0.4425 1.1712-0.4425 0.77016 0 1.1741 0.42774 0.40688 0.42479 0.40688 1.2242zm-0.85444 0q0-0.56935-0.18309-0.826-0.1831-0.25666-0.53185-0.25666-0.744 0-0.744 1.0827 0 0.53395 0.18019 0.81421 0.18309 0.27729 0.52603 0.27729 0.75271 0 0.75271-1.0915z"/><path d="m17.561 8.2116q0 0.46316-0.3749 0.72866-0.37199 0.26255-1.0317 0.26255-0.64809 0-0.99393-0.2065-0.34294-0.20945-0.45628-0.649l0.71785-0.10915q0.06103 0.22716 0.20924 0.32155 0.15112 0.094398 0.52312 0.094398 0.34294 0 0.49988-0.088502 0.15695-0.0885 0.15695-0.27729 0-0.1534-0.12788-0.2419-0.12497-0.091446-0.42721-0.1534-0.69169-0.13865-0.93291-0.25666-0.24122-0.12095-0.3691-0.30974-0.12497-0.19174-0.12497-0.46905 0-0.45724 0.34584-0.71095 0.34875-0.25666 0.98522-0.25666 0.5609 0 0.90093 0.22124 0.34294 0.22124 0.42721 0.64016l-0.72365 0.0767q-0.03486-0.19469-0.17146-0.2891-0.13659-0.09735-0.43303-0.09735-0.29064 0-0.43594 0.0767-0.1453 0.07375-0.1453 0.25074 0 0.13865 0.11044 0.22124 0.11335 0.07965 0.37781 0.13275 0.3691 0.0767 0.65391 0.1593 0.28772 0.07965 0.45919 0.19176 0.17437 0.1121 0.2761 0.2891 0.10462 0.17405 0.10462 0.4484z"/><path d="m18.99 5.9518v1.7907q0 0.84074 0.55801 0.84074 0.29644 0 0.47663-0.25666 0.1831-0.2596 0.1831-0.66374v-1.711h0.81665v2.4779q0 0.4071 0.02328 0.7139h-0.77891q-0.03486-0.42479-0.03486-0.63424h-0.01455q-0.16275 0.36284-0.41559 0.52805-0.24995 0.1652-0.59578 0.1652-0.49988 0-0.76725-0.30974-0.26737-0.31271-0.26737-0.9145v-2.0266z"/></svg>
